<svg xmlns="http://www.w3.org/2000/svg" version="1.1" x="0px" y="0px" width="206px" height="106px" viewBox="0 0 206 106" enable-background="new 0 0 206 106" xml:space="preserve"><path display="none" fill="#0088F4" d="M80.952 47.7c2.4-2.9 4.012-7.422 4.012-12.849v-5.445c0-10.369-8.406-18.776-18.776-18.776 -0.003 0-0.006 0-0.01 0H28.76c-5.035 0.157-9.904 2.585-13.357 6.661 -2.915 3.44-4.599 7.724-4.773 12.118v47.208c0 5.094 1.944 9.828 5.476 13.332 2.628 2.609 7.346 5.719 14.897 5.719h0.013 55.307V47.7H80.952z"/><path display="none" fill="#D50F7E" d="M81.489 10.63c-0.003 0-0.007 0-0.01 0 -10.37 0-18.776 8.407-18.776 18.776v5.445c0 5.427 1.611 9.949 4.012 12.849h-5.371v47.969h52.414c7.551 0 12.269-3.109 14.896-5.719 3.531-3.504 5.477-8.238 5.477-13.332V47.707l2.906 0V29.409v-18.78L81.489 10.63z"/><path display="none" fill="#97D600" d="M190.109 17.291c-3.453-4.076-8.322-6.504-13.357-6.661h-40.792c-5.035 0.157-9.904 2.585-13.357 6.661 -2.914 3.44-4.6 7.724-4.773 12.118v47.208c0 5.094 1.945 9.828 5.477 13.332 2.628 2.609 7.346 5.719 14.896 5.719h36.308c7.551 0 12.269-3.109 14.896-5.719 3.531-3.504 5.477-8.238 5.477-13.332V29.409C194.708 25.015 193.023 20.731 190.109 17.291z"/><path display="none" fill="#D50F7E" d="M80.952 47.7c2.4-2.9 4.012-7.422 4.012-12.849v-5.445c0-10.369-8.406-18.776-18.776-18.776 -0.003 0-0.006 0-0.01 0H28.76c-5.035 0.157-9.904 2.585-13.357 6.661 -2.915 3.44-4.599 7.724-4.773 12.118v47.208c0 5.094 1.944 9.828 5.476 13.332 2.628 2.609 7.346 5.719 14.897 5.719h0.013 55.307V47.7H80.952z"/><path display="none" fill="#97D600" d="M81.489 10.63c-0.003 0-0.007 0-0.01 0 -10.37 0-18.776 8.407-18.776 18.776v5.445c0 5.427 1.611 9.949 4.012 12.849h-5.371v47.969h52.414c7.551 0 12.269-3.109 14.896-5.719 3.531-3.504 5.477-8.238 5.477-13.332V47.707l2.906 0V29.409v-18.78L81.489 10.63z"/><path display="none" fill="#0088F4" d="M190.109 17.291c-3.453-4.076-8.322-6.504-13.357-6.661h-40.792c-5.035 0.157-9.904 2.585-13.357 6.661 -2.914 3.44-4.6 7.724-4.773 12.118v47.208c0 5.094 1.945 9.828 5.477 13.332 2.628 2.609 7.346 5.719 14.896 5.719h36.308c7.551 0 12.269-3.109 14.896-5.719 3.531-3.504 5.477-8.238 5.477-13.332V29.409C194.708 25.015 193.023 20.731 190.109 17.291z"/><path fill="#FFFFFF" d="M205.512 24.896C205.512 11.146 194.367 0 180.618 0H24.896C11.146 0 0 11.146 0 24.896l0 0.017h0v56.473h0l0 0.019c0 13.749 11.146 24.896 24.896 24.896h155.722c13.749 0 24.895-11.146 24.895-24.896v-0.019V24.912 24.896"/><path fill="#97D600" d="M66.187 10.629l-0.01 0H28.76c-5.035 0.157-9.904 2.585-13.357 6.661 -2.915 3.44-4.599 7.724-4.773 12.118v47.208c0 5.094 1.944 9.828 5.476 13.332 2.628 2.609 7.346 5.719 14.897 5.719h0.013 55.307H61.343V47.7h5.371c-2.4-2.9-4.012-7.422-4.012-12.849v-5.445c0-7.646 4.571-14.226 11.13-17.154C71.498 11.209 68.91 10.629 66.187 10.629"/><path fill="#0088F4" d="M137.037 10.629l-55.548 0 -0.01 0c-2.723 0-5.311 0.58-7.646 1.622 6.559 2.928 11.13 9.507 11.13 17.154v5.445c0 5.427-1.611 9.949-4.012 12.849h5.371v47.969h27.435c5.464 0 9.443-1.628 12.222-3.517 -1.061-0.721-1.947-1.48-2.674-2.202 -3.531-3.504-5.477-8.238-5.477-13.332V29.409c0.174-4.395 1.859-8.678 4.773-12.118 3.453-4.076 8.322-6.504 13.357-6.661L137.037 10.629 137.037 10.629"/><path fill="#007200" d="M73.833 12.251c-6.559 2.928-11.13 9.507-11.13 17.154v5.445c0 5.427 1.611 9.949 4.012 12.849h-5.371v47.969h24.979V47.7h-5.371c2.4-2.9 4.012-7.422 4.012-12.849v-5.445C84.963 21.759 80.392 15.18 73.833 12.251"/><path fill="#D50F7E" d="M176.751 10.63h-39.715v18.779 18.298l-2.906 0v28.911c0 5.094-1.945 9.828-5.477 13.332 -0.727 0.722-1.613 1.481-2.675 2.202 2.779 1.889 6.759 3.517 12.223 3.517h36.308c7.551 0 12.269-3.109 14.896-5.719 3.531-3.504 5.477-8.238 5.477-13.332V29.409c-0.174-4.395-1.859-8.678-4.773-12.118C186.656 13.215 181.787 10.787 176.751 10.63"/><path fill="#000879" d="M137.037 10.63h-1.077c-5.035 0.157-9.904 2.585-13.357 6.661 -2.914 3.44-4.6 7.724-4.773 12.118v47.208c0 5.094 1.945 9.828 5.477 13.332 0.727 0.722 1.613 1.481 2.674 2.202 1.062-0.721 1.948-1.48 2.675-2.202 3.531-3.504 5.477-8.238 5.477-13.332V47.707l2.906 0V29.409 10.63"/><rect x="117.829" y="40.15" fill="#FFFFFF" width="8.881" height="41.87"/><path fill="#FFFFFF" d="M102.519 56.656L102.519 56.656H85.247c-2.066 0-3.741-1.676-3.741-3.742s1.675-3.742 3.741-3.742h26.723v-8.858H85.247c-6.959 0-12.6 5.642-12.6 12.601s5.641 12.601 12.6 12.601h17.271c2.067 0 3.742 1.674 3.742 3.742 0 2.066-1.675 3.74-3.742 3.74H75.799v8.859h26.719 0.001c6.959 0 12.601-5.641 12.601-12.599C115.12 62.296 109.478 56.656 102.519 56.656z"/><path fill="#FFFFFF" d="M38.984 65.515h17.273c6.959 0 12.6-5.642 12.6-12.601s-5.641-12.601-12.6-12.601H29.535v8.858h26.723c2.066 0 3.741 1.676 3.741 3.742s-1.675 3.742-3.741 3.742H38.984c-6.959 0-12.6 5.64-12.6 12.601v12.599H67.72v-8.859H35.242v-3.74C35.242 67.188 36.918 65.515 38.984 65.515z"/><path fill="#FFFFFF" d="M143.016 49.171h26.723v-8.858h-26.723c-6.959 0-12.6 5.642-12.6 12.601v16.343c0 6.958 5.641 12.599 12.6 12.599h26.598v-8.859h-26.598c-2.066 0-3.74-1.674-3.74-3.74V52.914C139.276 50.847 140.95 49.171 143.016 49.171z"/></svg>